<?xml version="1.0" standalone="no"?>
<!DOCTYPE svg PUBLIC "-//W3C//DTD SVG 20010904//EN"
 "http://www.w3.org/TR/2001/REC-SVG-20010904/DTD/svg10.dtd">
<svg version="1.0" xmlns="http://www.w3.org/2000/svg"
 width="597.000000pt" height="600.000000pt" viewBox="0 0 597.000000 600.000000"
 preserveAspectRatio="xMidYMid meet">

<g transform="translate(0.000000,600.000000) scale(0.100000,-0.100000)"
fill="#000000" stroke="none">
<path d="M5435 5094 c-146 -35 -293 -111 -287 -148 3 -13 -1 -17 -12 -13 -19
7 -76 -34 -320 -235 l-188 -155 -92 24 c-50 14 -95 28 -99 32 -4 4 20 29 53
55 34 27 60 55 60 66 0 10 -16 38 -36 62 -48 58 -64 72 -31 27 14 -20 28 -42
29 -48 5 -17 -144 -131 -170 -131 -32 0 -242 62 -242 72 0 4 26 29 59 55 54
43 58 49 49 72 -8 25 -87 123 -88 110 0 -3 13 -23 30 -44 16 -20 28 -41 25
-45 -15 -24 -146 -120 -163 -120 -12 0 -58 12 -102 26 -45 14 -84 24 -86 22
-4 -4 271 -93 578 -187 103 -31 190 -60 193 -63 6 -6 -113 -105 -362 -304
l-65 -52 -56 34 c-65 40 -72 41 -72 14 0 -11 6 -20 13 -20 7 0 30 -12 51 -26
l38 -26 -38 -32 c-20 -17 -61 -49 -89 -71 -249 -192 -434 -367 -543 -513 l-47
-63 -50 6 c-27 3 -145 24 -260 45 -236 45 -229 44 -220 30 4 -6 11 -8 16 -5 5
4 9 2 9 -3 0 -14 65 -28 283 -58 108 -16 197 -31 197 -35 0 -3 -24 -46 -54
-95 -69 -115 -101 -206 -79 -227 3 -4 14 0 24 9 12 11 16 25 13 47 -5 27 5 48
57 127 35 52 68 100 74 106 6 6 27 31 46 54 18 24 49 60 67 80 17 21 32 42 32
47 0 12 205 216 272 270 26 21 95 80 155 131 59 51 113 96 118 100 6 4 28 22
50 40 38 31 62 42 50 23 -3 -5 -1 -12 4 -15 5 -4 7 7 5 24 -4 22 -1 30 10 30
8 0 19 6 23 13 4 8 33 32 64 54 31 23 67 54 80 70 16 19 33 29 47 28 15 -1 21
3 18 11 -4 12 20 29 37 26 4 -1 7 2 7 7 0 16 84 91 102 91 10 0 18 6 18 13 0
13 40 43 53 39 5 -1 6 2 2 8 -3 5 -3 10 2 10 4 0 30 20 58 45 27 25 52 45 56
45 4 0 20 12 37 28 43 40 82 72 86 72 2 0 2 -12 0 -26 -1 -14 0 -23 3 -20 4 3
8 18 9 32 3 29 -3 23 133 127 56 42 95 77 86 77 -9 0 -13 5 -10 10 4 6 15 8
26 5 11 -4 19 -2 19 5 0 11 29 9 83 -6 28 -8 8 -26 -22 -20 -14 4 2 -8 37 -25
109 -53 167 -163 142 -268 -14 -59 -31 -81 -83 -105 -20 -9 -35 -21 -32 -26 3
-6 -1 -7 -9 -4 -9 3 -16 2 -16 -3 0 -4 -16 -17 -35 -27 -19 -11 -35 -23 -35
-29 0 -5 -6 -7 -14 -4 -17 7 -58 -21 -50 -34 3 -5 1 -8 -4 -7 -16 5 -103 -65
-98 -79 3 -6 0 -10 -7 -8 -17 6 -50 -21 -42 -34 3 -6 0 -9 -8 -5 -8 3 -30 -9
-48 -25 -18 -17 -37 -31 -42 -31 -5 0 -6 -7 -3 -16 3 -9 2 -12 -5 -9 -12 8
-51 -24 -43 -36 3 -5 -1 -7 -8 -4 -7 3 -34 -14 -61 -38 -26 -24 -47 -42 -47
-39 0 3 -9 -3 -20 -13 -12 -10 -18 -25 -15 -33 4 -12 2 -12 -8 -3 -11 8 -18 6
-31 -8 -10 -11 -15 -24 -11 -30 3 -7 0 -8 -10 -5 -19 8 -48 -15 -41 -32 3 -8
0 -11 -10 -7 -18 7 -46 -16 -40 -33 3 -8 0 -11 -9 -8 -7 3 -22 -3 -33 -14 -11
-11 -30 -25 -41 -32 -12 -6 -21 -19 -21 -28 0 -10 -10 -24 -22 -32 -12 -8 -28
-22 -37 -30 -9 -8 -32 -26 -51 -39 -19 -14 -53 -40 -75 -58 -22 -19 -75 -63
-117 -98 -58 -49 -85 -65 -108 -65 -16 0 -30 3 -30 8 0 12 -61 43 -72 36 -6
-4 5 23 24 60 39 72 38 95 -2 39 -39 -55 -74 -89 -185 -178 -28 -22 -73 -60
-101 -85 -28 -25 -71 -61 -95 -81 -24 -20 -88 -75 -142 -122 -54 -48 -109 -95
-122 -106 -14 -10 -25 -21 -25 -23 0 -6 271 81 332 107 16 6 17 0 13 -76 -10
-207 -14 -412 -5 -349 4 36 11 135 15 220 7 166 11 204 23 196 22 -13 170 59
233 114 51 44 52 45 83 65 l29 19 -12 -21 c-6 -12 -11 -33 -11 -46 0 -20 4
-24 20 -20 10 3 22 14 25 24 4 10 12 19 18 19 7 0 19 9 27 20 8 11 20 20 28
20 7 0 24 11 38 25 30 30 121 78 134 70 5 -3 12 4 15 16 5 14 12 18 23 14 19
-8 27 -8 65 1 24 6 27 4 27 -20 0 -18 5 -26 17 -26 15 0 14 -2 -3 -15 -19 -15
-19 -15 1 -7 11 4 50 23 87 42 63 32 67 35 62 64 -6 44 102 -177 166 -336 29
-73 94 -257 145 -408 111 -329 103 -310 124 -310 9 0 12 3 5 8 -11 8 -44 74
-44 89 0 12 -110 352 -126 390 -8 17 -14 37 -14 45 0 7 -11 37 -25 66 -14 30
-25 64 -25 76 0 12 -5 27 -12 34 -6 6 -13 21 -15 33 -2 11 -14 44 -26 72 -13
29 -32 71 -42 95 -10 23 -23 42 -28 42 -6 0 -8 3 -4 6 3 3 -15 46 -40 95 -51
99 -53 137 -9 184 21 23 24 23 40 7 16 -16 17 -16 8 8 -7 19 -5 28 12 41 20
17 22 16 34 -4 12 -20 12 -19 7 11 -4 17 -2 32 3 32 18 0 102 73 102 89 1 11
5 8 16 -9 14 -25 14 -24 8 12 -4 25 -1 44 9 58 14 20 15 19 39 -32 18 -38 30
-92 42 -188 23 -183 114 -761 115 -730 1 14 -8 99 -19 190 -25 209 -25 196 8
203 16 3 69 38 119 77 68 53 90 76 86 89 -3 10 -25 40 -50 67 -33 36 -38 40
-19 13 14 -20 26 -40 26 -45 -1 -5 -24 -27 -52 -49 -29 -22 -71 -57 -94 -78
-50 -45 -49 -46 -64 100 -6 59 -12 119 -15 133 -3 23 2 28 43 43 65 23 198
133 194 160 -3 24 -71 117 -86 117 -5 0 1 -12 15 -27 54 -60 56 -54 -30 -126
-90 -74 -129 -102 -136 -95 -7 7 -24 237 -25 319 l0 66 197 159 c366 295 400
330 483 499 40 80 51 113 55 165 l4 65 -9 -56 c-5 -31 -19 -76 -31 -100 -55
-113 -65 -131 -84 -152 -11 -12 -27 -35 -34 -52 l-15 -30 -7 66 c-4 36 -16 84
-28 107 -38 74 -136 152 -193 152 -13 0 -29 4 -36 8 -16 11 245 109 303 115
36 3 35 4 -10 4 -27 1 -77 -5 -110 -13z m-1131 -1562 c-62 -45 -149 -99 -193
-121 -34 -16 -41 -17 -41 -5 0 9 5 12 10 9 6 -3 10 -2 10 2 0 15 79 97 86 90
4 -4 13 -2 21 5 7 6 16 8 20 5 3 -3 20 1 37 10 17 9 37 18 44 19 8 1 16 5 20
8 3 3 10 6 15 6 6 0 -8 -13 -29 -28z m-544 -197 c0 -8 -93 -75 -104 -75 -16 1
74 80 90 80 8 0 14 -2 14 -5z"/>
<path d="M2462 5049 c-952 -83 -1718 -832 -1821 -1781 -30 -271 4 -594 90
-852 l32 -96 53 0 c33 0 54 4 54 11 0 6 -18 61 -39 122 -22 62 -47 150 -56
197 -9 47 -22 103 -28 125 -8 26 -12 120 -11 270 2 243 13 339 63 515 23 82
39 127 55 165 10 22 34 76 53 120 19 44 39 82 44 86 8 5 54 77 100 156 41 72
69 112 88 125 11 8 25 26 32 41 7 15 16 27 20 27 4 0 11 9 14 20 3 11 11 20
16 20 6 0 2 -12 -9 -27 -16 -23 -70 -129 -103 -205 -17 -37 12 -27 38 13 34
52 44 30 14 -27 -15 -28 -21 -57 -21 -105 0 -64 -16 -136 -28 -124 -3 3 -5 29
-3 58 3 62 -15 55 -30 -12 -5 -23 -27 -82 -50 -131 -68 -151 -85 -307 -53
-480 8 -47 19 -139 23 -206 7 -105 11 -123 30 -145 36 -38 91 -138 84 -154 -3
-8 0 -15 6 -15 18 0 13 40 -9 75 -11 18 -27 52 -35 76 -9 23 -22 50 -30 59
-20 22 -32 135 -16 153 6 8 7 17 3 22 -4 4 5 0 20 -9 18 -12 28 -29 33 -56 5
-32 9 -37 20 -27 12 10 11 14 -1 23 -8 6 -14 18 -14 26 0 9 -7 21 -15 28 -8 7
-15 17 -15 23 0 7 4 7 12 -1 8 -8 16 -6 29 9 18 21 36 100 26 116 -9 14 18 85
37 98 11 9 16 28 16 67 0 40 6 62 20 81 11 14 20 34 20 45 0 12 5 24 10 27 6
3 10 -3 10 -15 0 -12 5 -18 10 -15 6 3 10 17 10 31 0 13 4 24 9 24 5 0 11 23
15 51 6 44 10 50 26 46 16 -4 20 0 20 22 0 16 9 36 20 46 12 11 20 31 20 52 0
18 11 56 25 83 14 27 25 58 25 70 0 11 4 20 8 20 5 0 18 19 30 43 12 23 33 53
46 65 14 12 28 33 32 46 3 14 15 28 25 31 10 4 19 12 19 19 0 7 16 30 36 52
19 21 56 65 81 97 25 31 52 57 59 57 8 0 14 5 14 11 0 5 5 7 10 4 15 -9 12 4
-5 21 -21 21 -8 43 31 50 18 3 38 11 43 18 14 17 17 84 3 98 -6 6 -12 22 -12
34 l0 22 -70 -26 c-65 -25 -99 -52 -65 -52 20 0 19 -12 -2 -49 -22 -38 -35
-40 -31 -3 3 23 0 27 -19 25 -15 -2 -23 3 -23 13 0 12 -7 15 -25 11 -25 -4
-25 -3 -10 17 8 11 20 31 25 44 5 12 17 22 26 22 9 0 27 9 41 20 14 11 32 20
39 20 8 0 14 5 14 10 0 6 5 10 11 10 6 0 37 16 69 35 32 19 65 35 73 35 9 0
33 11 53 25 38 26 93 45 132 45 12 0 22 4 22 8 0 11 52 26 145 43 39 7 75 16
80 19 6 4 29 8 51 8 23 1 75 6 115 12 99 14 458 14 495 0 16 -6 25 -8 21 -4
-4 4 5 15 19 25 14 9 22 19 17 22 -18 11 -232 36 -353 41 -69 2 -171 0 -228
-5z"/>
<path d="M3088 5013 c6 -2 18 -2 25 0 6 3 1 5 -13 5 -14 0 -19 -2 -12 -5z"/>
<path d="M2350 4936 c0 -3 5 -17 12 -30 9 -21 8 -29 -5 -44 -10 -10 -17 -22
-17 -27 0 -4 -14 -30 -30 -57 -34 -55 -38 -54 68 -24 29 8 94 20 145 26 51 7
99 16 107 20 8 5 34 5 57 0 24 -4 40 -3 37 1 -3 5 -18 9 -34 9 -16 0 -33 6
-37 13 -4 8 -21 21 -38 29 -76 40 -107 57 -121 69 -12 10 -17 9 -28 -6 -11
-16 -15 -16 -42 -2 -36 18 -74 30 -74 23z"/>
<path d="M3355 4930 c27 -12 43 -12 25 0 -8 5 -22 9 -30 9 -10 0 -8 -3 5 -9z"/>
<path d="M3402 4915 c7 -8 330 -115 343 -114 11 0 -324 118 -339 118 -5 1 -7
-1 -4 -4z"/>
<path d="M3770 4790 c8 -5 22 -9 30 -9 10 0 8 3 -5 9 -27 12 -43 12 -25 0z"/>
<path d="M1988 4759 c-10 -5 -18 -19 -18 -31 0 -17 2 -19 16 -8 19 16 37 50
27 50 -4 0 -16 -5 -25 -11z"/>
<path d="M2046 4754 c-22 -21 -20 -31 5 -37 18 -5 21 -11 16 -36 -6 -28 -4
-31 19 -31 14 0 23 4 19 9 -3 5 7 12 22 14 23 3 21 4 -10 6 -33 1 -37 4 -36
24 6 65 -5 81 -35 51z"/>
<path d="M1879 4731 c-14 -11 -24 -31 -25 -49 l-2 -30 52 4 c28 3 69 5 91 5
22 1 32 3 22 6 -10 2 -16 12 -15 21 3 16 -2 18 -46 21 -13 1 -17 6 -13 21 7
27 -32 27 -64 1z"/>
<path d="M3379 4687 c28 -30 154 -107 175 -107 25 0 -8 28 -91 77 -122 72
-126 74 -84 30z m62 -34 c13 -16 12 -17 -3 -4 -10 7 -18 15 -18 17 0 8 8 3 21
-13z"/>
<path d="M1885 4630 c-3 -5 -1 -10 4 -10 6 0 11 5 11 10 0 6 -2 10 -4 10 -3 0
-8 -4 -11 -10z"/>
<path d="M1936 4621 c-11 -4 -20 -19 -22 -34 -2 -24 0 -26 17 -17 10 6 19 18
19 26 0 11 6 13 22 8 20 -6 21 -5 6 10 -9 9 -18 16 -20 15 -2 0 -12 -4 -22 -8z"/>
<path d="M4790 4605 c-11 -13 -10 -14 4 -9 9 3 16 10 16 15 0 13 -6 11 -20 -6z"/>
<path d="M3610 4555 c0 -15 22 -45 33 -45 7 0 24 -7 40 -14 15 -8 27 -11 27
-6 0 9 -39 39 -77 59 -13 6 -23 9 -23 6z"/>
<path d="M4645 4490 c-3 -5 -13 -7 -23 -4 -14 5 -15 4 -2 -5 20 -14 27 -14 34
4 6 17 0 20 -9 5z"/>
<path d="M3730 4462 c0 -11 3 -33 6 -50 l6 -31 40 20 c44 23 46 18 -24 64 -27
17 -28 17 -28 -3z m40 -52 c0 -5 -5 -10 -11 -10 -5 0 -7 5 -4 10 3 6 8 10 11
10 2 0 4 -4 4 -10z"/>
<path d="M4596 4443 c-6 -14 -5 -15 5 -6 7 7 10 15 7 18 -3 3 -9 -2 -12 -12z"/>
<path d="M3876 4310 c-39 -43 -43 -52 -23 -49 28 3 34 -2 32 -31 -3 -31 4 -37
21 -20 5 5 32 22 60 37 l51 28 -52 37 -53 38 -36 -40z m39 -80 c-3 -5 -12 -10
-18 -10 -7 0 -6 4 3 10 19 12 23 12 15 0z"/>
<path d="M4433 4313 c0 -9 4 -10 14 -2 7 6 13 12 13 14 0 1 -6 2 -13 2 -8 0
-14 -6 -14 -14z"/>
<path d="M4389 4273 c-13 -16 -12 -17 4 -4 16 13 21 21 13 21 -2 0 -10 -8 -17
-17z"/>
<path d="M1202 3508 c-7 -7 -12 -21 -11 -32 0 -15 2 -17 6 -6 3 8 12 23 21 33
17 19 3 24 -16 5z"/>
<path d="M2780 3516 c0 -2 14 -14 30 -26 17 -12 30 -19 30 -16 0 2 -13 14 -30
26 -16 12 -30 19 -30 16z"/>
<path d="M2850 3466 c0 -2 8 -10 18 -17 15 -13 16 -12 3 4 -13 16 -21 21 -21
13z"/>
<path d="M4317 3463 c-10 -9 -9 -23 1 -23 5 0 9 7 9 15 0 17 -1 18 -10 8z"/>
<path d="M2940 3396 c0 -2 8 -10 18 -17 15 -13 16 -12 3 4 -13 16 -21 21 -21
13z"/>
<path d="M2990 3356 c0 -2 8 -10 18 -17 15 -13 16 -12 3 4 -13 16 -21 21 -21
13z"/>
<path d="M4540 3323 c-30 -20 -125 -74 -210 -121 -85 -47 -156 -86 -158 -87
-2 -1 4 -5 13 -9 9 -3 14 -2 11 3 -3 4 5 13 18 19 23 10 23 10 15 -29 -5 -22
-6 -51 -3 -65 4 -15 2 -29 -4 -33 -6 -3 -12 -30 -13 -60 -2 -29 -9 -59 -16
-66 -7 -8 -13 -32 -13 -54 0 -31 -6 -44 -26 -60 -15 -12 -22 -21 -15 -21 6 0
11 -7 11 -16 0 -10 -5 -14 -16 -10 -8 3 -13 2 -10 -3 3 -4 -3 -24 -13 -43 -17
-35 -17 -36 1 -49 11 -8 37 -43 58 -79 61 -103 110 -137 110 -75 0 22 50 75
71 75 6 0 25 11 43 25 28 21 35 23 39 10 4 -8 1 -14 -6 -12 -6 1 -13 -9 -15
-23 -2 -14 -9 -31 -15 -39 -6 -7 -12 -21 -12 -30 -1 -9 -2 -28 -3 -43 -2 -21
-6 -26 -19 -21 -9 4 -14 2 -10 -3 6 -11 -13 -88 -26 -100 -4 -4 -7 -18 -7 -32
0 -13 -11 -38 -26 -54 -14 -17 -28 -44 -31 -60 -3 -15 -10 -31 -14 -34 -5 -3
-9 -14 -9 -24 0 -11 -9 -24 -20 -30 -11 -6 -20 -18 -20 -28 -1 -9 -21 -44 -45
-77 -25 -33 -65 -90 -89 -126 -47 -70 -153 -184 -198 -214 -16 -9 -28 -24 -28
-32 0 -8 -6 -13 -12 -10 -7 2 -42 -11 -78 -30 -36 -18 -80 -33 -97 -33 l-33 0
0 58 c0 32 5 63 11 69 19 19 -7 86 -41 105 -30 17 -31 17 -40 -5 -6 -14 -9
-17 -9 -6 -1 9 8 24 18 33 18 17 36 58 22 53 -3 -1 -22 10 -41 25 -37 27 -120
53 -205 63 -122 13 -135 13 -135 1 0 -16 -45 -66 -60 -66 -14 0 -13 12 6 38
27 39 10 47 -28 13 -20 -17 -40 -31 -46 -31 -25 0 -20 22 14 60 20 22 30 38
23 36 -8 -3 -75 -8 -149 -11 -74 -3 -193 -10 -265 -16 -109 -9 -262 -7 -446 5
-36 2 -37 1 -42 -37 -3 -21 -22 -63 -41 -93 -35 -52 -36 -55 -21 -84 8 -16 15
-39 15 -52 0 -23 -2 -23 -64 -18 -127 10 -329 6 -333 -7 -3 -7 -21 -13 -41
-14 -49 -1 -80 -13 -63 -24 11 -6 11 -9 0 -16 -10 -6 -10 -15 -2 -43 9 -28 8
-36 -4 -40 -38 -15 -117 6 -155 41 -13 11 -39 29 -58 38 -48 24 -214 178 -252
234 -18 25 -46 61 -62 79 -17 17 -56 74 -87 125 -48 78 -54 93 -40 99 9 4 -21
7 -66 7 -46 1 -83 -2 -83 -5 0 -4 23 -47 51 -97 157 -272 422 -542 699 -709
428 -258 940 -346 1435 -247 375 75 739 272 1015 549 337 338 535 762 581
1245 16 166 0 486 -25 484 -6 0 -36 -16 -66 -36z"/>
<path d="M3045 3310 c10 -11 20 -20 23 -20 3 0 -3 9 -13 20 -10 11 -20 20 -23
20 -3 0 3 -9 13 -20z"/>
<path d="M3200 3186 c0 -2 8 -10 18 -17 15 -13 16 -12 3 4 -13 16 -21 21 -21
13z"/>
<path d="M3330 3040 c6 -11 13 -20 16 -20 2 0 0 9 -6 20 -6 11 -13 20 -16 20
-2 0 0 -9 6 -20z"/>
<path d="M3185 3010 c-4 -6 -11 -7 -17 -4 -7 4 -8 2 -4 -5 6 -9 12 -9 24 1 10
7 19 14 21 15 2 2 -1 3 -7 3 -6 0 -14 -5 -17 -10z"/>
<path d="M1111 2974 c0 -11 3 -14 6 -6 3 7 2 16 -1 19 -3 4 -6 -2 -5 -13z"/>
<path d="M5052 2945 c0 -16 2 -22 5 -12 2 9 2 23 0 30 -3 6 -5 -1 -5 -18z"/>
<path d="M1131 2895 c0 -11 4 -29 9 -40 l9 -20 0 20 c0 11 -4 29 -9 40 l-9 20
0 -20z"/>
<path d="M3431 2845 c0 -5 6 -21 14 -35 8 -14 14 -20 14 -15 0 6 -6 21 -14 35
-8 14 -14 21 -14 15z"/>
<path d="M3486 2727 c3 -10 9 -15 12 -12 3 3 0 11 -7 18 -10 9 -11 8 -5 -6z"/>
<path d="M3536 2627 c3 -10 9 -15 12 -12 3 3 0 11 -7 18 -10 9 -11 8 -5 -6z"/>
<path d="M1266 2571 c-3 -5 2 -15 12 -22 15 -12 16 -12 5 2 -7 9 -10 19 -6 22
3 4 4 7 0 7 -3 0 -8 -4 -11 -9z"/>
<path d="M5059 2503 c-13 -16 -12 -17 4 -4 9 7 17 15 17 17 0 8 -8 3 -21 -13z"/>
<path d="M1335 2500 c3 -5 11 -10 16 -10 6 0 7 5 4 10 -3 6 -11 10 -16 10 -6
0 -7 -4 -4 -10z"/>
<path d="M3587 1796 c-4 -10 -5 -21 -2 -24 9 -9 17 6 13 25 -3 17 -4 17 -11
-1z"/>
</g>
</svg>
